<svg viewBox="0 0 12 12" width="60px" height="60px" xmlns="http://www.w3.org/2000/svg"><path fill-rule="evenodd" d="M 4,0 8,0 8,2 9,2 9,4 12,4 12,7 10,7 10,12 2,12 2,7 0,7 0,4 3,4 3,2 4,2z" fill="#32A467"/><path fill-rule="evenodd" d="M 5,1 7,1 7,2 5,2z" fill="#ffffff"/><path fill-rule="evenodd" d="M 4,3 5,3 5,4 4,4z" fill="#ffffff"/><path fill-rule="evenodd" d="M 7,3 8,3 8,4 7,4z" fill="#ffffff"/><path fill-rule="evenodd" d="M 1,5 3,5 3,6 1,6z" fill="#ffffff"/><path fill-rule="evenodd" d="M 4,5 5,5 5,6 4,6z" fill="#ffffff"/><path fill-rule="evenodd" d="M 7,5 8,5 8,6 7,6z" fill="#ffffff"/><path fill-rule="evenodd" d="M 9,5 11,5 11,6 9,6z" fill="#ffffff"/><path fill-rule="evenodd" d="M 5,6 7,6 7,7 5,7z" fill="#ffffff"/><path fill-rule="evenodd" d="M 3,7 4,7 4,9 5,9 5,10 4,10 4,11 3,11z" fill="#ffffff"/><path fill-rule="evenodd" d="M 8,7 9,7 9,11 8,11 8,10 7,10 7,9 8,9z" fill="#ffffff"/><path fill-rule="evenodd" d="M 5,10 7,10 7,11 5,11z" fill="#ffffff"/></svg>